<?xml version="1.0" encoding="utf-8"?>
<!-- Generator: Adobe Illustrator 27.5.0, SVG Export Plug-In . SVG Version: 6.00 Build 0)  -->
<svg version="1.1" id="Layer_1" xmlns="http://www.w3.org/2000/svg" xmlns:xlink="http://www.w3.org/1999/xlink" x="0px" y="0px"
	 viewBox="0 0 48 48" style="enable-background:new 0 0 48 48;" xml:space="preserve">
<style type="text/css">
	.st0{fill:#AC6AFF;}
	.st1{fill:#0EB484;}
</style>
<polygon class="st0" points="36,-38.1 36,-43.3 26.4,-49.6 26.4,-45.6 32.8,-41.4 32.8,-38.2 29.8,-36.2 27.8,-37.7 27.8,-40.2 
	24.5,-42.4 24.5,-37.9 19.3,-34.7 19.3,-26.3 15.6,-24.2 13.8,-25.7 13.8,-28.1 16,-29.7 16,-29.7 16,-33.4 12,-30.8 8.9,-32.8 
	6.1,-30.9 10.5,-27.9 10.5,-26.1 7.3,-23.9 4.1,-26.1 4.1,-33.4 8.9,-36.6 8.9,-39.7 15,-35.8 20.2,-39.2 17,-41 15,-39.7 
	10.5,-42.6 15.6,-45.6 19.9,-43 19.9,-46.8 15.6,-49.4 5.6,-43.6 5.6,-38.4 0.8,-35.1 0.8,-24.4 5.6,-21.1 5.6,-15.9 15.2,-9.6 
	15.2,-13.6 8.9,-17.8 8.9,-21 11.8,-23 13.8,-21.5 13.8,-19.1 17.1,-16.8 17.1,-21.3 22.4,-24.5 22.5,-32.9 26,-35 27.9,-33.5 
	27.9,-31.1 25.7,-29.6 25.7,-29.5 25.7,-25.8 29.7,-28.5 32.7,-26.5 35.5,-28.3 31.2,-31.3 31.2,-33.1 34.3,-35.3 37.5,-33.1 
	37.5,-25.8 32.8,-22.6 32.8,-19.5 26.6,-23.4 21.5,-20 24.6,-18.2 26.7,-19.6 31.1,-16.6 26.1,-13.6 21.7,-16.2 21.7,-12.4 
	26.1,-9.8 36,-15.6 36,-20.8 40.8,-24.1 40.8,-34.9 "/>
<path class="st1" d="M24,0C10.7,0,0,10.7,0,24s10.7,24,24,24s24-10.7,24-24S37.3,0,24,0z M34.7,39.4H17.1c-6.2,0-11.2-5-11.2-11.2
	v-6.8h10.7l0.1,7.6h18V39.4z M31.4,26.6L31.3,19h-18V8.6h17.6c6.2,0,11.2,5,11.2,11.2v6.8H31.4z"/>
</svg>
