<?xml version="1.0" encoding="utf-8"?>
<!-- Generator: Adobe Illustrator 27.5.0, SVG Export Plug-In . SVG Version: 6.00 Build 0)  -->
<svg version="1.1" id="Layer_1" xmlns="http://www.w3.org/2000/svg" xmlns:xlink="http://www.w3.org/1999/xlink" x="0px" y="0px"
	 viewBox="0 0 164.3 40" style="enable-background:new 0 0 164.3 40;" xml:space="preserve">
<style type="text/css">
	.st0{fill:#FFFFFF;}
	.st1{fill:#AC6AFF;}
	.st2{fill:#0EB484;}
</style>
<g>
	<path class="st0" d="M27.9-43.3v-20.4h8.5c1.5,0,2.8,0.2,3.8,0.6c1,0.4,1.8,1,2.3,1.8c0.5,0.8,0.8,1.7,0.8,2.7
		c0,0.8-0.2,1.5-0.5,2.1c-0.3,0.6-0.8,1.1-1.3,1.5c-0.6,0.4-1.2,0.7-2,0.8v0.2c0.8,0,1.6,0.3,2.3,0.7c0.7,0.4,1.3,1,1.7,1.7
		c0.4,0.7,0.6,1.6,0.6,2.5c0,1.1-0.3,2.1-0.8,2.9c-0.6,0.9-1.4,1.5-2.4,2c-1.1,0.5-2.3,0.7-3.8,0.7H27.9z M32.8-47.2h3
		c1.1,0,1.9-0.2,2.4-0.6c0.5-0.4,0.8-1,0.8-1.7c0-0.5-0.1-1-0.4-1.4c-0.2-0.4-0.6-0.7-1-0.9c-0.5-0.2-1-0.3-1.6-0.3h-3.1V-47.2z
		 M32.8-55.3h2.7c0.5,0,1-0.1,1.4-0.3c0.4-0.2,0.7-0.4,1-0.8c0.2-0.3,0.4-0.7,0.4-1.2c0-0.7-0.2-1.2-0.7-1.6c-0.5-0.4-1.1-0.6-2-0.6
		h-2.8V-55.3z M45.3-43.3v-15.3h4.7v2.8h0.2c0.3-1,0.7-1.8,1.4-2.2c0.6-0.5,1.4-0.7,2.2-0.7c0.2,0,0.5,0,0.7,0
		c0.2,0,0.5,0.1,0.7,0.1v4.2c-0.2-0.1-0.5-0.1-0.9-0.2c-0.4,0-0.7-0.1-1-0.1c-0.6,0-1.1,0.1-1.6,0.4c-0.5,0.3-0.8,0.6-1.1,1.1
		c-0.3,0.5-0.4,1-0.4,1.6v8.3H45.3z M59.7-43c-1,0-1.8-0.2-2.6-0.5c-0.7-0.3-1.3-0.8-1.8-1.5c-0.4-0.7-0.6-1.5-0.6-2.5
		c0-0.8,0.1-1.6,0.4-2.1c0.3-0.6,0.7-1.1,1.2-1.4c0.5-0.4,1.1-0.6,1.8-0.8c0.7-0.2,1.4-0.3,2.2-0.4c0.9-0.1,1.6-0.2,2.1-0.2
		c0.5-0.1,0.9-0.2,1.2-0.4c0.2-0.2,0.4-0.4,0.4-0.7v0c0-0.5-0.2-0.9-0.5-1.2c-0.4-0.3-0.8-0.4-1.4-0.4c-0.6,0-1.2,0.1-1.6,0.4
		s-0.6,0.7-0.7,1.2l-4.5-0.2c0.1-0.9,0.5-1.8,1-2.5c0.6-0.7,1.3-1.3,2.3-1.7c1-0.4,2.1-0.6,3.5-0.6c1,0,1.9,0.1,2.7,0.3
		c0.8,0.2,1.5,0.6,2.1,1c0.6,0.4,1.1,1,1.4,1.6c0.3,0.6,0.5,1.3,0.5,2.2v10.4h-4.6v-2.1h-0.1c-0.3,0.5-0.6,1-1,1.3
		c-0.4,0.4-0.9,0.6-1.5,0.8C61.1-43.1,60.5-43,59.7-43z M61.2-46.2c0.5,0,1-0.1,1.4-0.3c0.4-0.2,0.8-0.5,1-0.9
		c0.3-0.4,0.4-0.8,0.4-1.3v-1.5c-0.1,0.1-0.3,0.1-0.5,0.2c-0.2,0.1-0.4,0.1-0.6,0.2c-0.2,0.1-0.5,0.1-0.7,0.1
		c-0.2,0-0.5,0.1-0.7,0.1c-0.5,0.1-0.8,0.2-1.2,0.3c-0.3,0.2-0.6,0.4-0.7,0.6c-0.2,0.2-0.2,0.5-0.2,0.9c0,0.5,0.2,0.9,0.5,1.2
		C60.2-46.3,60.7-46.2,61.2-46.2z M70.7-43.3v-15.3h4.9v15.3H70.7z M73.2-60.3c-0.7,0-1.3-0.2-1.8-0.7c-0.5-0.5-0.7-1-0.7-1.7
		c0-0.6,0.2-1.2,0.7-1.6c0.5-0.5,1.1-0.7,1.8-0.7c0.7,0,1.3,0.2,1.8,0.7c0.5,0.5,0.7,1,0.7,1.6c0,0.6-0.2,1.2-0.7,1.7
		C74.4-60.6,73.8-60.3,73.2-60.3z M82.4-52v8.7h-4.9v-15.3h4.6v2.8h0.2c0.3-0.9,0.9-1.7,1.7-2.2c0.8-0.5,1.8-0.8,2.9-0.8
		c1.1,0,2,0.2,2.8,0.7c0.8,0.5,1.4,1.1,1.8,2c0.4,0.9,0.7,1.9,0.7,3v9.7h-4.9v-8.8c0-0.8-0.2-1.5-0.6-2c-0.4-0.5-1-0.7-1.8-0.7
		c-0.5,0-1,0.1-1.4,0.3c-0.4,0.2-0.7,0.5-0.9,0.9C82.5-53.1,82.4-52.6,82.4-52z"/>
	<polygon class="st0" points="97,-43.3 93.1,-58.6 97.9,-58.6 100,-48.8 100.1,-48.8 102.3,-58.6 107.1,-58.6 109.4,-48.8 
		109.5,-48.8 111.5,-58.6 116.4,-58.6 112.4,-43.3 107.2,-43.3 104.8,-52.2 104.6,-52.2 102.2,-43.3 	"/>
	<path class="st0" d="M121.5-43c-1,0-1.8-0.2-2.6-0.5c-0.7-0.3-1.3-0.8-1.8-1.5c-0.4-0.7-0.6-1.5-0.6-2.5c0-0.8,0.1-1.6,0.4-2.1
		c0.3-0.6,0.7-1.1,1.2-1.4c0.5-0.4,1.1-0.6,1.8-0.8c0.7-0.2,1.4-0.3,2.2-0.4c0.9-0.1,1.6-0.2,2.1-0.2c0.5-0.1,0.9-0.2,1.2-0.4
		c0.2-0.2,0.4-0.4,0.4-0.7v0c0-0.5-0.2-0.9-0.5-1.2c-0.4-0.3-0.8-0.4-1.4-0.4c-0.6,0-1.2,0.1-1.6,0.4c-0.4,0.3-0.6,0.7-0.7,1.2
		l-4.5-0.2c0.1-0.9,0.5-1.8,1-2.5c0.6-0.7,1.3-1.3,2.3-1.7c1-0.4,2.1-0.6,3.5-0.6c1,0,1.9,0.1,2.7,0.3c0.8,0.2,1.5,0.6,2.1,1
		c0.6,0.4,1.1,1,1.4,1.6c0.3,0.6,0.5,1.3,0.5,2.2v10.4h-4.6v-2.1h-0.1c-0.3,0.5-0.6,1-1,1.3c-0.4,0.4-0.9,0.6-1.5,0.8
		C122.9-43.1,122.2-43,121.5-43z M123-46.2c0.5,0,1-0.1,1.4-0.3c0.4-0.2,0.8-0.5,1-0.9c0.3-0.4,0.4-0.8,0.4-1.3v-1.5
		c-0.1,0.1-0.3,0.1-0.5,0.2c-0.2,0.1-0.4,0.1-0.6,0.2c-0.2,0.1-0.5,0.1-0.7,0.1c-0.2,0-0.5,0.1-0.7,0.1c-0.5,0.1-0.8,0.2-1.2,0.3
		c-0.3,0.2-0.6,0.4-0.7,0.6c-0.2,0.2-0.2,0.5-0.2,0.9c0,0.5,0.2,0.9,0.5,1.2C122-46.3,122.5-46.2,123-46.2z"/>
	<polygon class="st0" points="146.8,-58.6 141.5,-43.3 136,-43.3 130.7,-58.6 135.8,-58.6 138.7,-48 138.8,-48 141.6,-58.6 	"/>
	<path class="st0" d="M154.2-43c-1.6,0-3-0.3-4.1-0.9c-1.2-0.6-2-1.5-2.7-2.7c-0.6-1.2-0.9-2.6-0.9-4.2c0-1.6,0.3-3,0.9-4.1
		c0.6-1.2,1.5-2.1,2.6-2.8c1.1-0.7,2.5-1,4-1c1.1,0,2.1,0.2,3,0.5c0.9,0.3,1.7,0.8,2.3,1.5c0.7,0.7,1.2,1.5,1.5,2.5
		c0.4,1,0.5,2.1,0.5,3.3v1.2h-13.3v-2.8h8.8c0-0.5-0.1-1-0.4-1.4c-0.2-0.4-0.6-0.7-1-0.9c-0.4-0.2-0.9-0.3-1.4-0.3
		c-0.5,0-1,0.1-1.5,0.4c-0.4,0.2-0.8,0.6-1,1c-0.3,0.4-0.4,0.9-0.4,1.4v2.9c0,0.6,0.1,1.2,0.4,1.6c0.2,0.5,0.6,0.8,1,1.1
		c0.5,0.3,1,0.4,1.6,0.4c0.4,0,0.8-0.1,1.2-0.2c0.4-0.1,0.7-0.3,0.9-0.5c0.3-0.2,0.4-0.5,0.6-0.9l4.5,0.1c-0.2,1-0.6,1.9-1.2,2.6
		c-0.6,0.7-1.4,1.3-2.5,1.7C156.7-43.2,155.5-43,154.2-43z"/>
	<polygon class="st1" points="7.1,-62.5 7.1,-67.7 -2.5,-74 -2.5,-70 3.8,-65.8 3.8,-62.6 0.9,-60.6 -1.2,-62.1 -1.2,-64.5 
		-4.4,-66.8 -4.4,-62.3 -9.6,-59.1 -9.6,-50.6 -13.3,-48.6 -15.2,-50.1 -15.2,-52.5 -13,-54 -13,-54 -13,-57.8 -17,-55.1 -20,-57.1 
		-22.9,-55.3 -18.5,-52.3 -18.5,-50.4 -21.6,-48.3 -24.9,-50.5 -24.9,-57.8 -20.1,-61 -20.1,-64.1 -13.9,-60.2 -8.8,-63.6 
		-11.9,-65.4 -14,-64 -18.5,-67 -13.4,-69.9 -9,-67.4 -9,-71.2 -13.4,-73.8 -23.3,-68 -23.3,-62.8 -28.1,-59.5 -28.1,-48.7 
		-23.3,-45.5 -23.3,-40.3 -13.7,-34 -13.7,-38 -20.1,-42.2 -20.1,-45.4 -17.1,-47.4 -15.1,-45.9 -15.1,-43.4 -11.8,-41.2 
		-11.8,-45.7 -6.6,-48.9 -6.5,-57.3 -3,-59.4 -1.1,-57.9 -1.1,-55.5 -3.3,-53.9 -3.3,-53.9 -3.3,-50.1 0.7,-52.8 3.8,-50.8 
		6.6,-52.7 2.2,-55.7 2.2,-57.5 5.4,-59.7 8.6,-57.5 8.6,-50.2 3.8,-47 3.8,-43.9 -2.3,-47.8 -7.5,-44.4 -4.3,-42.6 -2.3,-43.9 
		2.2,-41 -2.9,-38 -7.2,-40.6 -7.2,-36.8 -2.9,-34.2 7.1,-40 7.1,-45.2 11.9,-48.4 11.9,-59.2 	"/>
</g>
<g>
	<rect x="101.2" y="23.3" class="st2" width="6.4" height="6.1"/>
	<path class="st2" d="M101.2,5.1v7.1h-5h-4.8V5H71.2c-3.3,0-5.8,2.8-5.8,6.1v0.5l0,6.6h6.3v-6.1h13.2v6.2l4.8,0h0l17.8,0V5.1H101.2z
		"/>
	<polygon class="st2" points="54.5,29.4 58.2,29.4 58.2,35 64,35 64,29.4 67.8,29.4 67.8,23.3 54.5,23.3 	"/>
	<path class="st2" d="M34,18.3h26.3l0-13.2h-6.4l0,7.1h-20c-3.5,0-6.3,2.8-6.3,6.3l0,11h21.1v-6.1H34V18.3z"/>
	<rect x="73.4" y="23.3" class="st2" width="13.3" height="6.1"/>
</g>
<g>
	<path class="st2" d="M150.2,23.2l13.1,0v-8.4v0c0-7.5-6.1-13.6-13.6-13.6l-21.5,0v12.7l22,0L150.2,23.2z"/>
	<path class="st2" d="M154.2,38.8V26.1l-22,0l-0.1-9.3H119l0,8.4v0c0,7.5,6.1,13.6,13.6,13.6L154.2,38.8z"/>
</g>
</svg>
